# xmcd
#
# Track frame offsets: 
#        183
#        23998
#        47513
#        74410
#        98563
#        113330
#        140248
#        187663
#        210770
#
# Disc length: 3154 seconds
#
# Revision: 12
# Processed by: cddbd v1.5.2PL0 Copyright (c) Steve Scherf et al.
# Submitted via: ExactAudioCopyFreeDBPlugin 1.0
#
DISCID=6c0c5009
DTITLE=Guitar Shorty and the Otis Grand Blues Band - My Way or the Highw
DTITLE=ay
DYEAR=1991
DGENRE=Blues
TTITLE0=No Educated Woman
TTITLE1=You Gave Me the Blues Baby
TTITLE2=Shorty Jumps In
TTITLE3=Down thru' the Years
TTITLE4=Red Hot Mama
TTITLE5=Hot and Saucy, Short and Grand
TTITLE6=It's Too Late
TTITLE7=Kick Out
TTITLE8=My Way or the Highway
EXTD=
EXTT0=
EXTT1=
EXTT2=
EXTT3=
EXTT4=
EXTT5=
EXTT6=
EXTT7=
EXTT8=
PLAYORDER=
